<?xml version="1.0" encoding="UTF-8" standalone="no"?>
<svg
   width="32"
   height="33"
   viewBox="0 0 32 33"
   fill="none"
   version="1.1"
   id="svg67"
   sodipodi:docname="logo.svg"
   inkscape:version="1.2.2 (b0a8486541, 2022-12-01)"
   xmlns:inkscape="http://www.inkscape.org/namespaces/inkscape"
   xmlns:sodipodi="http://sodipodi.sourceforge.net/DTD/sodipodi-0.dtd"
   xmlns="http://www.w3.org/2000/svg"
   xmlns:svg="http://www.w3.org/2000/svg">
  <sodipodi:namedview
     id="namedview69"
     pagecolor="#ffffff"
     bordercolor="#000000"
     borderopacity="0.25"
     inkscape:showpageshadow="2"
     inkscape:pageopacity="0.0"
     inkscape:pagecheckerboard="0"
     inkscape:deskcolor="#d1d1d1"
     showgrid="false"
     inkscape:zoom="10.683942"
     inkscape:cx="19.140876"
     inkscape:cy="16.379723"
     inkscape:window-width="1366"
     inkscape:window-height="712"
     inkscape:window-x="0"
     inkscape:window-y="0"
     inkscape:window-maximized="1"
     inkscape:current-layer="layer1" />
  <defs
     id="defs65">
    <linearGradient
       id="paint0_linear_13207_83133"
       x1="20.0604"
       y1="24.2706"
       x2="23.2079"
       y2="13.3075"
       gradientUnits="userSpaceOnUse">
      <stop
         stop-color="#1724C9"
         id="stop20" />
      <stop
         offset="1"
         stop-color="#1C64F2"
         id="stop22" />
    </linearGradient>
    <linearGradient
       id="paint1_linear_13207_83133"
       x1="27.3093"
       y1="10.8996"
       x2="19.0297"
       y2="2.64913"
       gradientUnits="userSpaceOnUse">
      <stop
         stop-color="#1C64F2"
         id="stop25" />
      <stop
         offset="1"
         stop-color="#0092FF"
         id="stop27" />
    </linearGradient>
    <linearGradient
       id="paint2_linear_13207_83133"
       x1="16.1642"
       y1="5.52115"
       x2="3.67407"
       y2="6.3104"
       gradientUnits="userSpaceOnUse">
      <stop
         stop-color="#0092FF"
         id="stop30" />
      <stop
         offset="1"
         stop-color="#45B2FF"
         id="stop32" />
    </linearGradient>
    <linearGradient
       id="paint3_linear_13207_83133"
       x1="15.32"
       y1="29.1636"
       x2="26.5369"
       y2="26.1368"
       gradientUnits="userSpaceOnUse">
      <stop
         stop-color="#1C64F2"
         id="stop35" />
      <stop
         offset="1"
         stop-color="#0092FF"
         id="stop37" />
    </linearGradient>
    <linearGradient
       id="paint4_linear_13207_83133"
       x1="7.26808"
       y1="16.1832"
       x2="15.2317"
       y2="24.4352"
       gradientUnits="userSpaceOnUse">
      <stop
         stop-color="#1724C9"
         id="stop40" />
      <stop
         offset="1"
         stop-color="#1C64F2"
         id="stop42" />
    </linearGradient>
    <linearGradient
       id="paint5_linear_13207_83133"
       x1="25.4497"
       y1="22.1366"
       x2="31.0061"
       y2="10.9354"
       gradientUnits="userSpaceOnUse">
      <stop
         stop-color="#0092FF"
         id="stop45" />
      <stop
         offset="1"
         stop-color="#45B2FF"
         id="stop47" />
    </linearGradient>
    <linearGradient
       id="paint6_linear_13207_83133"
       x1="5.36387"
       y1="9.63214"
       x2="2.39054"
       y2="20.8077"
       gradientUnits="userSpaceOnUse">
      <stop
         stop-color="#1C64F2"
         id="stop50" />
      <stop
         offset="1"
         stop-color="#0092FF"
         id="stop52" />
    </linearGradient>
    <linearGradient
       id="paint7_linear_13207_83133"
       x1="20.5432"
       y1="9.09961"
       x2="9.6778"
       y2="11.8049"
       gradientUnits="userSpaceOnUse">
      <stop
         stop-color="#1724C9"
         id="stop55" />
      <stop
         offset="1"
         stop-color="#1C64F2"
         id="stop57" />
    </linearGradient>
    <linearGradient
       id="paint8_linear_13207_83133"
       x1="6.40691"
       y1="21.8576"
       x2="13.3327"
       y2="32.2755"
       gradientUnits="userSpaceOnUse"
       gradientTransform="translate(0.49995501,-0.69126579)">
      <stop
         stop-color="#0092FF"
         id="stop60" />
      <stop
         offset="1"
         stop-color="#45B2FF"
         id="stop62" />
    </linearGradient>
  </defs>
  <g
     inkscape:groupmode="layer"
     id="layer1"
     inkscape:label="Layer 1"
     transform="matrix(0.06656973,0,0,0.07298052,9.9988663,13.799294)">
    <path
       d="m 209.82409,-178.91448 1.09948,21.93692 c 1.26669,0.87957 2.0955,2.34508 2.0955,4.00366 0,1.48315 -0.66371,2.81171 -1.70897,3.70545 l 0.1948,3.88551 c 13.24268,1.65322 23.48729,12.9498 23.48729,26.6405 0,5.62453 -1.72908,10.8451 -4.68463,15.15851 v 4.821577 h 6.68207 v 66.707571 h 16.35471 V -20.0583 l -6.32272,5.321896 V 40.92858 h 6.32272 v 10.416234 l -6.32272,5.321894 V 95.17095 h 6.32272 v 10.07855 l -6.32272,5.3217 v 36.14901 l 6.32272,5.84213 v 25.45445 H 90.455372 -72.433618 v -25.45445 l 6.32272,-5.84213 V 110.5712 l -6.32272,-5.3217 V 95.17095 h 6.32272 V 56.666708 l -6.32272,-5.321894 V 40.92858 h 6.32272 v -55.664984 l -6.32272,-5.321896 v -11.996482 h 16.35471 v -66.707571 h 6.68206 v -4.821577 c -2.95555,-4.31341 -4.68463,-9.53398 -4.68463,-15.15851 0,-13.6907 10.24461,-24.98728 23.48729,-26.6405 l 0.1948,-3.88551 c -1.04526,-0.89374 -1.70897,-2.2223 -1.70897,-3.70545 0,-1.65858 0.82882,-3.12409 2.09551,-4.00366 l 1.09947,-21.93692 c 2.24051,0 3.36047,0 3.36047,0 l 1.10005,21.94112 c 1.2619,0.88036 2.08841,2.34357 2.08841,3.99946 0,1.48047 -0.66044,2.80729 -1.70245,3.70048 l 0.1948,3.89048 c 13.2421,1.65322 23.48843786,12.94923 23.48843786,26.6405 0,5.17133 -1.46168966,10.00172 -3.99448906,14.09792 v 5.882167 h 6.6822484 v 66.707571 H 19.62171 v -46.74491 l -5.020211,-2.249317 v -10.201895 l 5.020211,-2.249126 3.984141,-6.79603 h 8.560741 l 3.98414,6.79603 h 30.52677 l 3.98414,-6.79603 h 8.56055 l 3.98414,6.79603 h 7.24904 7.24903 l 3.984148,-6.79603 h 8.56053 l 3.98414,6.79603 h 30.52676 l 3.98415,-6.79603 h 8.56073 l 3.98414,6.79603 5.02022,2.249126 v 10.201895 l -5.02022,2.249317 v 46.74491 h 17.31762 v -66.707571 h 6.68224 v -5.881587 c -2.53299,-4.09678 -3.99448,-8.92717 -3.99448,-14.0985 0,-13.69127 10.24633,-24.98728 23.48824,-26.6405 l 0.19499,-3.89048 c -1.04201,-0.89319 -1.70245,-2.22001 -1.70245,-3.70048 0,-1.65589 0.82652,-3.1191 2.08842,-3.99946 l 1.09985,-21.94112 c 0,0 1.12015,0 3.36066,0 z M 30.090432,-82.601484 h 15.51517 44.84977 44.849738 15.51498 v 61.699235 h 27.78653 11.32952 v -65.994254 h 5.75919 v -19.604657 c -3.15744,-3.12525 -5.1133,-7.4628 -5.1133,-12.2568 0,-9.52478 7.72042,-17.2452 17.24501,-17.2452 9.52479,0 17.24521,7.72042 17.24521,17.2452 0,4.82311 -1.9802,9.18422 -5.17134,12.31349 v 19.547967 h 5.7592 v 65.994254 h 9.68778 V 145.83297 l 7.44384,10.20036 v 10.83093 H 90.455372 -61.881008 v -10.83093 l 7.44383,-10.20036 V -20.902249 h 9.6876 v -65.994254 h 5.75938 v -19.547967 c -3.19114,-3.12927 -5.17134,-7.49038 -5.17134,-12.31349 0,-9.52478 7.72043,-17.2452 17.24502,-17.2452 9.52478,0 17.2452097,7.72042 17.2452097,17.2452 0,4.794 -1.9558697,9.13155 -5.1132997,12.2568 v 19.604657 h 5.7591897 v 65.994254 H 2.3040992 30.090432 Z"
       style="fill:#000000;fill-rule:evenodd;stroke-width:1.91545"
       id="path229" />
    <path
       d="m 253.34204,257.27442 h -42.51501 v -6.8127 l 33.41393,-41.56534 H 213.9067 v -6.51885 h 38.52206 v 6.8125 l -33.41395,41.56552 h 34.32723 z"
       style="fill:#000000;fill-rule:evenodd;stroke-width:1.91545"
       id="path231" />
    <path
       d="m 182.33331,258.20724 c -6.23422,0 -10.90428,-1.22665 -13.9964,-3.70639 -3.09211,-2.46711 -5.0453,-5.38128 -5.85918,-8.71723 -0.82632,-3.34841 -1.23948,-7.23448 -1.23948,-11.65688 v -31.74921 h 7.12356 v 31.64712 c 0,7.209 1.18912,11.9507 3.55527,14.22626 2.36636,2.27498 5.84731,3.39935 10.41623,3.39935 4.5697,0 8.05009,-1.12437 10.41567,-3.39935 2.37938,-2.27556 3.55585,-7.01726 3.55585,-14.22626 v -31.64712 h 7.1613 v 31.74921 c 0,6.64643 -0.77652,11.54175 -2.32881,14.68617 -1.56492,3.14421 -3.90619,5.49638 -7.03584,7.05576 -3.12947,1.55879 -7.0481,2.33857 -11.76817,2.33857 z"
       style="fill:#000000;fill-rule:evenodd;stroke-width:1.91545"
       id="path233" />
    <path
       d="m 114.11658,227.27612 h 15.87411 c 4.43159,0 7.63672,-0.70316 9.62726,-2.1344 2.00299,-1.41877 2.99232,-3.87285 2.99232,-7.37505 0,-6.23748 -3.8313,-9.35623 -11.51801,-9.35623 h -16.97568 z m 37.70778,29.9983 h -7.71238 l -5.05756,-14.64767 c -0.90142,-2.59467 -2.40371,-4.7166 -4.50668,-6.36505 -2.10336,-1.63598 -4.53215,-2.46729 -7.26167,-2.46729 h -13.16949 v 23.48001 h -7.12414 v -54.89689 h 23.81213 c 4.15576,0 7.54879,0.40933 10.1904,1.24007 2.64141,0.8177 4.79476,2.55636 6.46005,5.20217 1.6653,2.64524 2.49124,5.62338 2.49124,8.9469 0,3.79585 -1.07629,6.96573 -3.22965,9.50945 -2.15334,2.55637 -5.09567,4.20538 -8.83885,4.98497 v 0.15323 c 3.74318,1.21402 6.59759,4.52451 8.55059,9.91822 z"
       style="fill:#000000;fill-rule:evenodd;stroke-width:1.91545"
       id="path235" />
    <path
       d="m 75.269262,258.20724 c -7.59936,0 -13.67135,-2.54333 -18.20293,-7.65588 -4.5446,-5.10008 -6.81039,-12.01467 -6.81039,-20.71887 0,-8.71723 2.26579,-15.63202 6.81039,-20.7319 4.53158,-5.09952 10.60357,-7.65588 18.20293,-7.65588 5.84654,0 10.8294,1.6105 14.93519,4.83134 4.10654,3.22083 6.41026,7.46452 6.92341,12.7303 h -7.32355 c -0.30073,-3.47656 -1.77812,-6.22465 -4.43218,-8.28241 -2.6416,-2.04476 -5.99652,-3.06781 -10.0274,-3.06781 -5.44601,0 -9.76574,1.91738 -12.94539,5.7523 -3.17966,3.83436 -4.76987,9.30469 -4.76987,16.42406 0,7.08066 1.57719,12.55158 4.73251,16.39857 3.15456,3.84738 7.43637,5.76456 12.83182,5.76456 4.20691,0 7.6122,-1.04794 10.20381,-3.14422 2.59104,-2.09646 4.05598,-5.10008 4.4067,-8.98558 h 7.32355 c -0.51315,5.84117 -2.75443,10.35322 -6.74796,13.54857 -3.98108,3.19536 -9.01375,4.79285 -15.11064,4.79285 z"
       style="fill:#000000;fill-rule:evenodd;stroke-width:1.91545"
       id="path237" />
    <path
       d="m 17.54306,251.99562 c 5.382811,0 9.789502,-1.94266 13.220082,-5.84117 3.44283,-3.89852 5.15812,-9.34319 5.15812,-16.32196 0,-6.9918 -1.71529,-12.43665 -5.13322,-16.33499 -3.43039,-3.88549 -7.787091,-5.84137 -13.095192,-5.84137 -5.407902,0 -9.8400619,1.95588 -13.2955414,5.84137 -3.46734908,3.89834 -5.19508874,9.34319 -5.19508874,16.33499 0,6.95309 1.72773966,12.39797 5.17018874,16.29648 3.4552795,3.91097 7.8370694,5.86665 13.1706514,5.86665 z m 0.0749,-50.55091 c 7.524291,0 13.696262,2.59486 18.478192,7.78402 4.79476,5.18895 7.19846,12.06562 7.19846,20.60376 0,8.52511 -2.4037,15.40158 -7.19846,20.59073 -4.78193,5.18973 -10.953901,7.78402 -18.478192,7.78402 -7.561252,0 -13.7462511,-2.59429 -18.56610014,-7.80949 -4.80740906,-5.20219 -7.22355846,-12.05279 -7.22355846,-20.56526 0,-8.53814 2.4161494,-15.41481 7.22355846,-20.60376 C 3.8717089,204.03957 10.056708,201.44471 17.61796,201.44471 Z"
       style="fill:#000000;fill-rule:evenodd;stroke-width:1.91545"
       id="path239" />
    <path
       d="m -18.513038,257.27442 h -7.14809 v -54.89689 h 7.14809 z"
       style="fill:#000000;fill-rule:evenodd;stroke-width:1.91545"
       id="path241" />
    <path
       d="m -36.152258,208.89638 h -29.15703 v 16.99909 h 25.26349 v 6.51885 h -25.26349 v 24.8601 h -7.12376 v -54.89689 h 36.28079 z"
       style="fill:#000000;fill-rule:evenodd;stroke-width:1.91545"
       id="path243"
       inkscape:label="path243" />
  </g>
</svg>
